<?xml version="1.0" encoding="UTF-8" standalone="no"?>
<svg
   xmlns:dc="http://purl.org/dc/elements/1.1/"
   xmlns:cc="http://creativecommons.org/ns#"
   xmlns:rdf="http://www.w3.org/1999/02/22-rdf-syntax-ns#"
   xmlns:svg="http://www.w3.org/2000/svg"
   xmlns="http://www.w3.org/2000/svg"
   xmlns:sodipodi="http://sodipodi.sourceforge.net/DTD/sodipodi-0.dtd"
   xmlns:inkscape="http://www.inkscape.org/namespaces/inkscape"
   version="1.0"
   width="602.000000pt"
   height="601.000000pt"
   viewBox="0 0 602.000000 601.000000"
   preserveAspectRatio="xMidYMid meet"
   id="svg3737"
   sodipodi:docname="logo.svg"
   inkscape:version="0.92.4 (5da689c313, 2019-01-14)">
  <metadata
     id="metadata3743">
    <rdf:RDF>
      <cc:Work
         rdf:about="">
        <dc:format>image/svg+xml</dc:format>
        <dc:type
           rdf:resource="http://purl.org/dc/dcmitype/StillImage" />
        <dc:title></dc:title>
      </cc:Work>
    </rdf:RDF>
  </metadata>
  <defs
     id="defs3741" />
  <sodipodi:namedview
     pagecolor="#ffffff"
     bordercolor="#666666"
     borderopacity="1"
     objecttolerance="10"
     gridtolerance="10"
     guidetolerance="10"
     inkscape:pageopacity="0"
     inkscape:pageshadow="2"
     inkscape:window-width="1564"
     inkscape:window-height="911"
     id="namedview3739"
     showgrid="false"
     inkscape:zoom="0.74828604"
     inkscape:cx="62.118487"
     inkscape:cy="434.10214"
     inkscape:window-x="26"
     inkscape:window-y="26"
     inkscape:window-maximized="0"
     inkscape:current-layer="g3735" />
  <g
     transform="translate(0.000000,601.000000) scale(0.100000,-0.100000)"
     fill="#000000"
     stroke="none"
     id="g3735">
    <path
       d="M2775 5974 c-136 -8 -435 -64 -590 -111 -80 -24 -194 -63 -228 -78 -18 -7 -83 -34 -145 -60 -515 -216 -1027 -663 -1339 -1170 -69 -111 -204 -383 -239 -479 -91 -252 -134 -413 -175 -666 -19 -115 -22 -175 -22 -405 0 -229 3 -290 21 -400 25 -148 60 -319 73 -352 l9 -23 395 0 395 0 2 903 3 902 345 2 c190 2 350 -1 357 -5 6 -4 37 -82 67 -172 145 -433 323 -957 328 -966 3 -5 22 -61 42 -124 21 -63 41 -119 46 -124 5 -5 12 3 15 20 6 27 37 125 125 394 21 63 68 209 105 323 36 114 81 254 99 310 19 56 50 154 70 219 22 70 43 118 52 122 21 8 668 8 688 0 14 -6 16 -95 16 -905 l0 -899 125 0 125 0 0 900 0 900 23 5 c12 4 272 4 577 2 l555 -4 98 -26 c454 -123 698 -488 700 -1047 1 -262 -45 -473 -139 -648 l-44 -82 287 2 286 3 8 25 c16 57 50 223 70 350 18 113 21 178 21 395 0 273 -11 387 -64 625 -35 160 -125 450 -158 508 -5 9 -28 57 -50 106 -47 105 -135 268 -188 347 -95 145 -116 173 -193 270 -198 249 -495 511 -764 676 -142 87 -359 195 -475 238 -269 97 -407 135 -650 176 -97 16 -178 21 -365 24 -132 1 -267 1 -300 -1z"
       id="path3729"
       style="fill:#ef6537;fill-opacity:1" />
    <path
       d="M4060 2940 l0 -650 203 0 c220 1 326 10 372 34 17 9 34 16 38 16 4 0 35 18 67 40 61 42 133 131 165 205 90 209 82 519 -18 723 -69 140 -171 219 -337 261 -72 18 -113 21 -287 21 l-203 0 0 -650z"
       id="path3731"
       style="fill:#ef6537;fill-opacity:1" />
    <path
       d="M2783 3268 c-6 -18 -57 -161 -113 -318 -140 -394 -316 -888 -352 -990 -16 -47 -37 -91 -45 -97 -12 -9 -63 -13 -170 -13 -147 0 -153 1 -167 23 -13 20 -121 311 -416 1127 -50 140 -96 262 -101 270 -5 9 -9 -285 -9 -690 0 -536 -3 -709 -12 -718 -9 -9 -153 -12 -585 -12 -315 0 -573 -2 -573 -5 0 -17 170 -342 223 -426 224 -359 540 -680 907 -922 494 -324 1125 -503 1710 -484 655 21 1253 234 1765 629 145 112 391 355 505 498 159 201 316 462 407 678 l13 32 -1468 0 c-1128 0 -1471 3 -1480 12 -9 9 -12 184 -12 725 0 392 -4 713 -8 713 -5 0 -13 -15 -19 -32z"
       id="path3733"
       style="fill:#4d4d4d;fill-opacity:1" />
    <path
       style="fill:#ef6537;fill-opacity:1;stroke-width:0.6681937"
       d="m 541.46735,409.2266 v -86.53108 l 14.86731,0.0236 c 20.91503,0.0331 42.08413,1.06769 47.27471,2.31036 33.69872,8.06778 49.94176,26.85658 56.90339,65.82184 0.59462,3.32819 0.88522,10.51009 0.86518,21.38219 -0.0279,15.16601 -0.16248,16.99282 -1.82797,24.82387 -3.03097,14.25155 -6.84835,23.25224 -13.73446,32.38337 -9.65049,12.79673 -22.63052,21.46835 -35.94905,24.01661 -7.33222,1.40288 -25.78538,2.27287 -48.52034,2.28754 l -19.87877,0.0128 z"
       id="path4560"
       inkscape:connector-curvature="0"
       transform="matrix(7.5,0,0,-7.5,0,6010)" />
  </g>
</svg>
